<svg width="500" height="400" viewBox="0 0 500 400" fill="none" xmlns="http://www.w3.org/2000/svg">
  <rect width="500" height="400" fill="#9CA3AF" />
  <path
    d="M257.875 175.917H235.75C234.446 175.917 233.195 176.435 232.273 177.357C231.351 178.279 230.833 179.529 230.833 180.833V220.167C230.833 221.471 231.351 222.721 232.273 223.643C233.195 224.565 234.446 225.083 235.75 225.083H265.25C266.554 225.083 267.805 224.565 268.727 223.643C269.649 222.721 270.167 221.471 270.167 220.167V188.208L257.875 175.917Z"
    stroke="white" stroke-width="3" stroke-linecap="round" stroke-linejoin="round" />
  <path
    d="M255.417 175.917V185.75C255.417 187.054 255.935 188.305 256.857 189.227C257.779 190.149 259.029 190.667 260.333 190.667H270.167"
    stroke="white" stroke-width="3" stroke-linecap="round" stroke-linejoin="round" />
  <path
    d="M245.583 205.417C248.299 205.417 250.5 203.215 250.5 200.5C250.5 197.785 248.299 195.583 245.583 195.583C242.868 195.583 240.667 197.785 240.667 200.5C240.667 203.215 242.868 205.417 245.583 205.417Z"
    stroke="white" stroke-width="3" stroke-linecap="round" stroke-linejoin="round" />
  <path
    d="M270.167 212.792L266.981 209.606C265.87 208.495 264.363 207.871 262.792 207.871C261.221 207.871 259.714 208.495 258.603 209.606L243.125 225.083"
    stroke="white" stroke-width="3" stroke-linecap="round" stroke-linejoin="round" />
</svg>